<?xml version="1.0" encoding="UTF-8" standalone="no"?>
<!-- Created with Inkscape (http://www.inkscape.org/) -->

<svg
   xmlns:dc="http://purl.org/dc/elements/1.1/"
   xmlns:cc="http://creativecommons.org/ns#"
   xmlns:rdf="http://www.w3.org/1999/02/22-rdf-syntax-ns#"
   xmlns:svg="http://www.w3.org/2000/svg"
   xmlns="http://www.w3.org/2000/svg"
   xmlns:sodipodi="http://sodipodi.sourceforge.net/DTD/sodipodi-0.dtd"
   xmlns:inkscape="http://www.inkscape.org/namespaces/inkscape"
   version="1.1"
   id="svg839"
   xml:space="preserve"
   width="800"
   height="800"
   viewBox="0 0 800 800"
   sodipodi:docname="random-colored-dots-freesvg.org.svg"
   inkscape:version="0.92.4 (5da689c313, 2019-01-14)"><metadata
     id="metadata845"><rdf:RDF><cc:Work
         rdf:about=""><dc:format>image/svg+xml</dc:format><dc:type
           rdf:resource="http://purl.org/dc/dcmitype/StillImage" /><dc:title></dc:title></cc:Work></rdf:RDF></metadata><defs
     id="defs843"><clipPath
       clipPathUnits="userSpaceOnUse"
       id="clipPath855"><path
         d="M 0,600 H 600 V 0 H 0 Z"
         id="path853"
         inkscape:connector-curvature="0" /></clipPath><clipPath
       clipPathUnits="userSpaceOnUse"
       id="clipPath863"><path
         d="M 328.995,318.974 H 555.992 V 293.86 H 328.995 Z"
         id="path861"
         inkscape:connector-curvature="0" /></clipPath><clipPath
       clipPathUnits="userSpaceOnUse"
       id="clipPath883"><path
         d="M 318.227,532.916 H 534.018 V 319.86 H 318.227 Z"
         id="path881"
         inkscape:connector-curvature="0" /></clipPath><clipPath
       clipPathUnits="userSpaceOnUse"
       id="clipPath905"><path
         d="m 292.221,557.632 h 25.113 V 330.636 h -25.113 z"
         id="path903"
         inkscape:connector-curvature="0" /></clipPath><clipPath
       clipPathUnits="userSpaceOnUse"
       id="clipPath925"><path
         d="M 78.2798,535.656 H 291.334 V 319.866 H 78.2798 Z"
         id="path923"
         inkscape:connector-curvature="0" /></clipPath><clipPath
       clipPathUnits="userSpaceOnUse"
       id="clipPath947"><path
         d="M 53.562,318.974 H 280.561 V 293.86 H 53.562 Z"
         id="path945"
         inkscape:connector-curvature="0" /></clipPath><clipPath
       clipPathUnits="userSpaceOnUse"
       id="clipPath967"><path
         d="M 75.5391,292.974 H 291.329 V 79.9199 H 75.5391 Z"
         id="path965"
         inkscape:connector-curvature="0" /></clipPath><clipPath
       clipPathUnits="userSpaceOnUse"
       id="clipPath989"><path
         d="m 292.22,282.199 h 25.114 V 55.2021 H 292.22 Z"
         id="path987"
         inkscape:connector-curvature="0" /></clipPath><clipPath
       clipPathUnits="userSpaceOnUse"
       id="clipPath1009"><path
         d="M 318.221,292.969 H 531.275 V 77.1787 H 318.221 Z"
         id="path1007"
         inkscape:connector-curvature="0" /></clipPath></defs><sodipodi:namedview
     pagecolor="#ffffff"
     bordercolor="#666666"
     borderopacity="1"
     objecttolerance="10"
     gridtolerance="10"
     guidetolerance="10"
     inkscape:pageopacity="0"
     inkscape:pageshadow="2"
     inkscape:window-width="1920"
     inkscape:window-height="1018"
     id="namedview841"
     showgrid="false"
     inkscape:zoom="0.80274038"
     inkscape:cx="506.77966"
     inkscape:cy="383.05085"
     inkscape:window-x="-8"
     inkscape:window-y="-8"
     inkscape:window-maximized="1"
     inkscape:current-layer="g847" /><g
     id="g847"
     inkscape:groupmode="layer"
     inkscape:label="logo-52-publicdomainvectors.org [Converted]"
     transform="matrix(1.3333333,0,0,-1.3333333,0,800)"><g
       id="g849"><g
         id="g851"
         clip-path="url(#clipPath855)"><g
           id="g857"><g
             id="g859" /><g
             id="g875"><g
               clip-path="url(#clipPath863)"
               id="g873"><path
                 d="m 467.083,305.522 c -0.041,-5.966 4.761,-10.845 10.739,-10.881 5.957,-0.04 10.848,4.769 10.875,10.734 0.038,5.959 -4.766,10.839 -10.731,10.889 -5.97,0.04 -10.85,-4.764 -10.883,-10.742"
                 style="fill:#ed0c89;fill-opacity:1;fill-rule:nonzero;stroke:none"
                 id="path865"
                 inkscape:connector-curvature="0" /><path
                 d="m 536.13,305.046 c -0.037,-5.487 4.365,-9.981 9.854,-10.002 5.487,-0.05 9.968,4.366 10.008,9.85 0.046,5.486 -4.378,9.97 -9.867,10.005 -5.479,0.04 -9.968,-4.376 -9.995,-9.853"
                 style="fill:#ed0c89;fill-opacity:1;fill-rule:nonzero;stroke:none"
                 id="path867"
                 inkscape:connector-curvature="0" /><path
                 d="m 398.03,306.016 c -0.043,-6.464 5.156,-11.731 11.601,-11.781 6.458,-0.038 11.728,5.158 11.776,11.613 0.051,6.456 -5.151,11.729 -11.602,11.77 -6.448,0.049 -11.716,-5.144 -11.775,-11.602"
                 style="fill:#ed0c89;fill-opacity:1;fill-rule:nonzero;stroke:none"
                 id="path869"
                 inkscape:connector-curvature="0" /><path
                 d="m 328.995,306.5 c -0.049,-6.934 5.532,-12.596 12.473,-12.64 6.945,-0.047 12.602,5.528 12.655,12.47 0.042,6.935 -5.545,12.602 -12.487,12.644 -6.928,0.043 -12.59,-5.531 -12.641,-12.474"
                 style="fill:#ed0c89;fill-opacity:1;fill-rule:nonzero;stroke:none"
                 id="path871"
                 inkscape:connector-curvature="0" /></g></g></g><g
           id="g877"><g
             id="g879" /><g
             id="g897"><g
               clip-path="url(#clipPath883)"
               id="g895"><path
                 d="m 420.18,420.551 c 4.189,-4.248 11.032,-4.302 15.285,-0.1 4.242,4.182 4.298,11.044 0.1,15.28 -4.186,4.24 -11.033,4.294 -15.288,0.112 -4.25,-4.195 -4.302,-11.042 -0.097,-15.292"
                 style="fill:#51aada;fill-opacity:1;fill-rule:nonzero;stroke:none"
                 id="path885"
                 inkscape:connector-curvature="0" /><path
                 d="m 469.337,469.038 c 3.856,-3.906 10.145,-3.969 14.043,-0.103 3.913,3.843 3.961,10.135 0.11,14.041 -3.845,3.911 -10.144,3.956 -14.052,0.098 -3.903,-3.846 -3.954,-10.141 -0.101,-14.036"
                 style="fill:#51aada;fill-opacity:1;fill-rule:nonzero;stroke:none"
                 id="path887"
                 inkscape:connector-curvature="0" /><path
                 d="m 518.603,530.305 c -3.559,-3.511 -3.608,-9.241 -0.096,-12.797 3.516,-3.569 9.251,-3.601 12.805,-0.1 3.573,3.518 3.61,9.249 0.092,12.808 -3.511,3.566 -9.252,3.603 -12.801,0.089"
                 style="fill:#51aada;fill-opacity:1;fill-rule:nonzero;stroke:none"
                 id="path889"
                 inkscape:connector-curvature="0" /><path
                 d="m 371.002,372.072 c 4.539,-4.601 11.939,-4.65 16.532,-0.125 4.594,4.54 4.648,11.94 0.115,16.537 -4.53,4.6 -11.934,4.651 -16.526,0.118 -4.593,-4.523 -4.645,-11.921 -0.121,-16.53"
                 style="fill:#51aada;fill-opacity:1;fill-rule:nonzero;stroke:none"
                 id="path891"
                 inkscape:connector-curvature="0" /><path
                 d="m 321.845,323.6 c 4.866,-4.938 12.817,-4.995 17.756,-0.119 4.946,4.877 5.004,12.821 0.129,17.766 -4.873,4.934 -12.831,4.99 -17.769,0.111 -4.93,-4.868 -4.99,-12.814 -0.116,-17.758"
                 style="fill:#51aada;fill-opacity:1;fill-rule:nonzero;stroke:none"
                 id="path893"
                 inkscape:connector-curvature="0" /></g></g></g><g
           id="g899"><g
             id="g901" /><g
             id="g917"><g
               clip-path="url(#clipPath905)"
               id="g915"><path
                 d="m 305.673,468.722 c 5.968,-0.039 10.847,4.761 10.881,10.739 0.041,5.958 -4.771,10.849 -10.734,10.876 -5.958,0.038 -10.84,-4.765 -10.89,-10.731 -0.04,-5.97 4.766,-10.85 10.743,-10.884"
                 style="fill:#bc61ad;fill-opacity:1;fill-rule:nonzero;stroke:none"
                 id="path907"
                 inkscape:connector-curvature="0" /><path
                 d="m 306.148,537.77 c 5.49,-0.037 9.981,4.366 10.004,9.855 0.05,5.485 -4.367,9.969 -9.851,10.007 -5.487,0.046 -9.971,-4.377 -10.006,-9.867 -0.039,-5.481 4.376,-9.968 9.853,-9.995"
                 style="fill:#bc61ad;fill-opacity:1;fill-rule:nonzero;stroke:none"
                 id="path909"
                 inkscape:connector-curvature="0" /><path
                 d="m 305.18,399.671 c 6.465,-0.044 11.729,5.155 11.778,11.601 0.039,6.457 -5.156,11.729 -11.61,11.775 -6.457,0.051 -11.729,-5.151 -11.772,-11.603 -0.049,-6.447 5.146,-11.714 11.604,-11.773"
                 style="fill:#bc61ad;fill-opacity:1;fill-rule:nonzero;stroke:none"
                 id="path911"
                 inkscape:connector-curvature="0" /><path
                 d="m 304.696,330.636 c 6.932,-0.05 12.596,5.532 12.638,12.471 0.049,6.946 -5.525,12.604 -12.469,12.653 -6.936,0.046 -12.602,-5.543 -12.644,-12.485 -0.041,-6.927 5.532,-12.588 12.475,-12.639"
                 style="fill:#bc61ad;fill-opacity:1;fill-rule:nonzero;stroke:none"
                 id="path913"
                 inkscape:connector-curvature="0" /></g></g></g><g
           id="g919"><g
             id="g921" /><g
             id="g939"><g
               clip-path="url(#clipPath925)"
               id="g937"><path
                 d="m 190.644,421.817 c 4.248,4.192 4.303,11.037 0.1,15.287 -4.183,4.244 -11.043,4.3 -15.28,0.102 -4.24,-4.188 -4.295,-11.035 -0.112,-15.288 4.193,-4.251 11.041,-4.304 15.292,-0.101"
                 style="fill:#c9de11;fill-opacity:1;fill-rule:nonzero;stroke:none"
                 id="path927"
                 inkscape:connector-curvature="0" /><path
                 d="m 142.157,470.977 c 3.905,3.856 3.968,10.145 0.104,14.044 -3.844,3.912 -10.137,3.959 -14.042,0.109 -3.911,-3.846 -3.955,-10.144 -0.097,-14.052 3.847,-3.904 10.142,-3.955 14.035,-0.101"
                 style="fill:#c9de11;fill-opacity:1;fill-rule:nonzero;stroke:none"
                 id="path929"
                 inkscape:connector-curvature="0" /><path
                 d="m 80.89,520.244 c 3.51,-3.561 9.24,-3.609 12.797,-0.098 3.568,3.517 3.601,9.252 0.1,12.806 -3.517,3.57 -9.248,3.61 -12.808,0.091 -3.565,-3.51 -3.603,-9.249 -0.089,-12.799"
                 style="fill:#c9de11;fill-opacity:1;fill-rule:nonzero;stroke:none"
                 id="path931"
                 inkscape:connector-curvature="0" /><path
                 d="m 239.123,372.642 c 4.6,4.539 4.649,11.938 0.125,16.533 -4.539,4.593 -11.94,4.646 -16.537,0.116 -4.6,-4.531 -4.651,-11.936 -0.119,-16.529 4.524,-4.591 11.922,-4.645 16.531,-0.12"
                 style="fill:#c9de11;fill-opacity:1;fill-rule:nonzero;stroke:none"
                 id="path933"
                 inkscape:connector-curvature="0" /><path
                 d="m 287.596,323.484 c 4.936,4.867 4.994,12.818 0.117,17.756 -4.878,4.947 -12.819,5.004 -17.765,0.13 -4.935,-4.872 -4.99,-12.83 -0.112,-17.769 4.869,-4.93 12.814,-4.991 17.76,-0.117"
                 style="fill:#c9de11;fill-opacity:1;fill-rule:nonzero;stroke:none"
                 id="path935"
                 inkscape:connector-curvature="0" /></g></g></g><g
           id="g941"><g
             id="g943" /><g
             id="g959"><g
               clip-path="url(#clipPath947)"
               id="g957"><path
                 d="m 142.473,307.313 c 0.039,5.967 -4.761,10.845 -10.739,10.88 -5.958,0.042 -10.849,-4.769 -10.875,-10.734 -0.039,-5.957 4.766,-10.838 10.73,-10.89 5.971,-0.039 10.85,4.766 10.884,10.744"
                 style="fill:#7ac72a;fill-opacity:1;fill-rule:nonzero;stroke:none"
                 id="path949"
                 inkscape:connector-curvature="0" /><path
                 d="m 73.425,307.789 c 0.036,5.487 -4.366,9.98 -9.855,10.003 -5.485,0.048 -9.968,-4.367 -10.007,-9.852 -0.045,-5.484 4.377,-9.97 9.867,-10.005 5.481,-0.039 9.967,4.376 9.995,9.854"
                 style="fill:#7ac72a;fill-opacity:1;fill-rule:nonzero;stroke:none"
                 id="path951"
                 inkscape:connector-curvature="0" /><path
                 d="m 211.524,306.82 c 0.043,6.463 -5.154,11.729 -11.6,11.779 -6.458,0.038 -11.73,-5.158 -11.776,-11.613 -0.049,-6.455 5.151,-11.727 11.602,-11.769 6.447,-0.048 11.716,5.144 11.774,11.603"
                 style="fill:#7ac72a;fill-opacity:1;fill-rule:nonzero;stroke:none"
                 id="path953"
                 inkscape:connector-curvature="0" /><path
                 d="m 280.56,306.336 c 0.05,6.932 -5.533,12.596 -12.472,12.638 -6.946,0.048 -12.604,-5.526 -12.655,-12.47 -0.043,-6.933 5.545,-12.602 12.487,-12.644 6.927,-0.043 12.589,5.533 12.64,12.476"
                 style="fill:#7ac72a;fill-opacity:1;fill-rule:nonzero;stroke:none"
                 id="path955"
                 inkscape:connector-curvature="0" /></g></g></g><g
           id="g961"><g
             id="g963" /><g
             id="g981"><g
               clip-path="url(#clipPath967)"
               id="g979"><path
                 d="m 189.376,192.284 c -4.189,4.246 -11.033,4.302 -15.286,0.101 -4.242,-4.184 -4.299,-11.045 -0.1,-15.281 4.187,-4.24 11.034,-4.293 15.288,-0.112 4.25,4.194 4.303,11.041 0.098,15.292"
                 style="fill:#4e7840;fill-opacity:1;fill-rule:nonzero;stroke:none"
                 id="path969"
                 inkscape:connector-curvature="0" /><path
                 d="m 140.217,143.797 c -3.854,3.906 -10.144,3.97 -14.042,0.104 -3.912,-3.844 -3.961,-10.135 -0.11,-14.042 3.847,-3.911 10.145,-3.956 14.052,-0.099 3.904,3.85 3.954,10.143 0.1,14.037"
                 style="fill:#4e7840;fill-opacity:1;fill-rule:nonzero;stroke:none"
                 id="path971"
                 inkscape:connector-curvature="0" /><path
                 d="m 90.952,82.529 c 3.56,3.512 3.608,9.242 0.096,12.797 -3.517,3.569 -9.251,3.603 -12.804,0.101 -3.572,-3.518 -3.611,-9.247 -0.092,-12.808 3.51,-3.565 9.249,-3.602 12.8,-0.09"
                 style="fill:#4e7840;fill-opacity:1;fill-rule:nonzero;stroke:none"
                 id="path973"
                 inkscape:connector-curvature="0" /><path
                 d="m 238.553,240.762 c -4.538,4.603 -11.939,4.65 -16.532,0.127 -4.592,-4.541 -4.647,-11.941 -0.117,-16.538 4.531,-4.601 11.937,-4.652 16.529,-0.12 4.593,4.526 4.646,11.922 0.12,16.531"
                 style="fill:#4e7840;fill-opacity:1;fill-rule:nonzero;stroke:none"
                 id="path975"
                 inkscape:connector-curvature="0" /><path
                 d="m 287.71,289.236 c -4.866,4.936 -12.817,4.993 -17.755,0.117 -4.946,-4.877 -5.004,-12.82 -0.13,-17.765 4.872,-4.934 12.83,-4.99 17.771,-0.111 4.927,4.869 4.989,12.812 0.114,17.759"
                 style="fill:#4e7840;fill-opacity:1;fill-rule:nonzero;stroke:none"
                 id="path977"
                 inkscape:connector-curvature="0" /></g></g></g><g
           id="g983"><g
             id="g985" /><g
             id="g1001"><g
               clip-path="url(#clipPath989)"
               id="g999"><path
                 d="m 303.883,144.111 c -5.968,0.041 -10.847,-4.758 -10.881,-10.736 -0.042,-5.96 4.769,-10.849 10.732,-10.877 5.961,-0.037 10.841,4.766 10.891,10.731 0.041,5.97 -4.765,10.85 -10.742,10.882"
                 style="fill:#ea442f;fill-opacity:1;fill-rule:nonzero;stroke:none"
                 id="path991"
                 inkscape:connector-curvature="0" /><path
                 d="m 303.406,75.065 c -5.487,0.037 -9.98,-4.366 -10.002,-9.855 -0.049,-5.484 4.367,-9.969 9.85,-10.008 5.486,-0.046 9.971,4.376 10.006,9.867 0.04,5.483 -4.376,9.968 -9.854,9.996"
                 style="fill:#ea442f;fill-opacity:1;fill-rule:nonzero;stroke:none"
                 id="path993"
                 inkscape:connector-curvature="0" /><path
                 d="m 304.375,213.165 c -6.464,0.042 -11.73,-5.155 -11.778,-11.602 -0.039,-6.458 5.156,-11.728 11.61,-11.775 6.457,-0.051 11.729,5.15 11.772,11.603 0.048,6.446 -5.145,11.714 -11.604,11.774"
                 style="fill:#ea442f;fill-opacity:1;fill-rule:nonzero;stroke:none"
                 id="path995"
                 inkscape:connector-curvature="0" /><path
                 d="m 304.859,282.199 c -6.932,0.051 -12.596,-5.533 -12.638,-12.47 -0.049,-6.948 5.526,-12.605 12.469,-12.655 6.935,-0.045 12.602,5.542 12.644,12.487 0.043,6.926 -5.532,12.588 -12.475,12.638"
                 style="fill:#ea442f;fill-opacity:1;fill-rule:nonzero;stroke:none"
                 id="path997"
                 inkscape:connector-curvature="0" /></g></g></g><g
           id="g1003"><g
             id="g1005" /><g
             id="g1023"><g
               clip-path="url(#clipPath1009)"
               id="g1021"><path
                 d="m 418.912,191.018 c -4.247,-4.193 -4.304,-11.036 -0.101,-15.288 4.182,-4.243 11.043,-4.298 15.28,-0.1 4.24,4.185 4.295,11.034 0.113,15.287 -4.193,4.25 -11.043,4.304 -15.292,0.101"
                 style="fill:#f6a32c;fill-opacity:1;fill-rule:nonzero;stroke:none"
                 id="path1011"
                 inkscape:connector-curvature="0" /><path
                 d="m 467.398,141.857 c -3.904,-3.854 -3.968,-10.143 -0.102,-14.043 3.842,-3.912 10.136,-3.96 14.041,-0.109 3.911,3.847 3.955,10.145 0.098,14.052 -3.848,3.904 -10.144,3.954 -14.037,0.1"
                 style="fill:#f6a32c;fill-opacity:1;fill-rule:nonzero;stroke:none"
                 id="path1013"
                 inkscape:connector-curvature="0" /><path
                 d="m 528.665,92.592 c -3.511,3.56 -9.241,3.608 -12.797,0.096 -3.569,-3.516 -3.599,-9.251 -0.1,-12.804 3.519,-3.571 9.249,-3.611 12.808,-0.091 3.567,3.509 3.603,9.249 0.089,12.799"
                 style="fill:#f6a32c;fill-opacity:1;fill-rule:nonzero;stroke:none"
                 id="path1015"
                 inkscape:connector-curvature="0" /><path
                 d="m 370.434,240.192 c -4.601,-4.538 -4.649,-11.938 -0.126,-16.533 4.538,-4.592 11.939,-4.645 16.536,-0.114 4.6,4.53 4.651,11.935 0.119,16.526 -4.525,4.595 -11.922,4.646 -16.529,0.121"
                 style="fill:#f6a32c;fill-opacity:1;fill-rule:nonzero;stroke:none"
                 id="path1017"
                 inkscape:connector-curvature="0" /><path
                 d="m 321.959,289.352 c -4.937,-4.87 -4.993,-12.821 -0.116,-17.757 4.876,-4.948 12.819,-5.004 17.765,-0.131 4.934,4.874 4.989,12.832 0.111,17.77 -4.869,4.929 -12.814,4.991 -17.76,0.118"
                 style="fill:#f6a32c;fill-opacity:1;fill-rule:nonzero;stroke:none"
                 id="path1019"
                 inkscape:connector-curvature="0" /></g></g></g></g></g></g></svg>